<?xml version="1.0" standalone="no"?>
<!DOCTYPE svg PUBLIC "-//W3C//DTD SVG 20010904//EN"
 "http://www.w3.org/TR/2001/REC-SVG-20010904/DTD/svg10.dtd">
<svg version="1.0" xmlns="http://www.w3.org/2000/svg"
 width="1080.000000pt" height="1080.000000pt" viewBox="0 0 1080.000000 1080.000000"
 preserveAspectRatio="xMidYMid meet">
<metadata>
Created by potrace 1.14, written by Peter Selinger 2001-2017
</metadata>
<g transform="translate(0.000000,1080.000000) scale(0.100000,-0.100000)"
fill="#000000" stroke="none">
<path d="M5189 10796 c-2 -2 -42 -6 -87 -10 -122 -9 -251 -29 -399 -61 -56
-12 -70 -16 -147 -35 -429 -110 -891 -350 -1252 -649 -126 -104 -353 -336
-457 -466 -215 -268 -393 -580 -507 -886 -50 -133 -53 -142 -55 -149 0 -3 -10
-36 -22 -75 -21 -69 -51 -181 -59 -220 -7 -36 -18 -90 -19 -95 -1 -3 -5 -27
-10 -55 -4 -27 -9 -57 -10 -65 -2 -9 -6 -43 -10 -75 -4 -33 -9 -69 -11 -80
-21 -111 -21 -562 1 -696 2 -13 6 -46 9 -74 3 -27 8 -63 11 -80 3 -16 10 -55
15 -85 6 -30 13 -68 15 -83 14 -75 70 -275 107 -382 73 -214 166 -417 275
-600 61 -102 51 -87 159 -254 125 -193 250 -405 303 -516 49 -99 63 -130 179
-380 33 -71 79 -170 102 -220 23 -49 51 -110 62 -135 114 -251 149 -312 221
-384 50 -49 96 -82 147 -108 147 -73 30 -68 1675 -65 l1480 2 58 22 c96 37
168 83 239 153 58 58 75 84 141 221 41 84 81 170 90 189 17 38 80 174 129 279
54 115 85 184 123 266 101 222 208 413 372 662 200 308 291 477 393 733 69
175 144 436 170 595 5 33 12 71 15 85 3 14 7 52 11 85 3 33 7 66 10 73 9 29
18 226 17 386 -3 350 -55 664 -168 1001 -277 832 -887 1525 -1675 1907 -291
141 -559 226 -885 283 -44 7 -107 17 -140 20 -33 4 -71 9 -85 12 -29 5 -525
14 -531 9z"/>
<path d="M4007 3564 c-1 -1 -25 -4 -53 -7 -99 -10 -192 -78 -240 -175 -27 -53
-29 -65 -29 -177 0 -109 3 -125 27 -177 32 -69 85 -122 158 -157 l55 -26 1470
0 c1382 0 1473 1 1516 18 60 23 102 55 143 108 51 67 64 120 62 246 -1 97 -5
115 -29 166 -37 74 -111 139 -186 163 -52 16 -144 18 -1474 18 -780 1 -1419 0
-1420 0z"/>
<path d="M3998 2581 c-100 -34 -183 -120 -209 -216 -18 -62 -14 -212 6 -270
33 -96 105 -167 200 -200 46 -16 151 -17 1370 -19 726 0 1345 2 1375 5 117 13
221 91 260 196 23 62 31 179 17 257 -18 101 -80 184 -174 232 l-58 29 -1370 1
c-1222 0 -1376 -1 -1417 -15z"/>
<path d="M4367 1629 c-73 -5 -99 -12 -161 -43 -138 -68 -213 -185 -203 -316
10 -118 60 -272 147 -445 254 -509 732 -824 1248 -823 643 2 1179 450 1383
1158 59 207 -34 382 -240 450 -64 21 -73 21 -1075 23 -556 1 -1050 -1 -1099
-4z"/>
</g>
</svg>
